<?xml version="1.0" encoding="utf-8" standalone="no"?>
<svg xmlns="http://www.w3.org/2000/svg" viewBox="0 0 456 456" width="456" height="456" preserveAspectRatio="xMidYMid meet">
	<title>cash-fast</title>
	<path fill="#9072C9" d="M324 188c-24-24-63-24-87 0s-24 63 0 87 63 24 87 0 24-63 0-87M140 116v224h272V116H140m248 160c-15 0-28 6-38 16s-16 23-16 38H180c0-15-6-28-16-38s-23-16-38-16v-80c15 0 28-6 38-16s16-23 16-38h154c0 15 6 28 16 38s23 16 38 16v80M92 152H44c-13 0-24-11-24-24s11-24 24-24h48v48m0 100H20c-13 0-24-11-24-24s11-24 24-24h72v48m0 100H20c-13 0-24-11-24-24s11-24 24-24h72v48"/>
</svg>
